PathFileType	4	(X/Y/Z)	C:\Users\Biomechanik\SynologyDrive\AlexP\Athlete_03\Athlete_3_25_03_31\Squat_35kg_02\marker_experimental.trc
DataRate	CameraRate	NumFrames	NumMarkers	Units	OrigDataRate	OrigDataStartFrame	OrigNumFrames
200.000000	200.000000	4	55	mm	200.000000	0	530
Frame#	Time	BL			BR			GLAB			RFHD			LFHD			C7			T6			SPINMOL			SPINM2			SPINM3			T12			BELTOL			BELT2			BELT3			SACROL			SACR2			SACR3			LTHOL			LTH2			LTH3			LSHAOL			LSHA2			LSHA3			LHEE			LTOE			LM5			RTHOL			RTH2			RTH3			RSHAOL			RSHA2			RSHA3			RHEE			RTOE			RM5			STRN			XIPH			LACR			LUAOL			LUA2			LUA3			LLAOL			LLA2			LLA3			LWRR			LWRU			RACR			RUAOL			RUA2			RUA3			RLAOL			RLA2			RLA3			RWRR			RWRU			
		X1	Y1	Z1	X2	Y2	Z2	X3	Y3	Z3	X4	Y4	Z4	X5	Y5	Z5	X6	Y6	Z6	X7	Y7	Z7	X8	Y8	Z8	X9	Y9	Z9	X10	Y10	Z10	X11	Y11	Z11	X12	Y12	Z12	X13	Y13	Z13	X14	Y14	Z14	X15	Y15	Z15	X16	Y16	Z16	X17	Y17	Z17	X18	Y18	Z18	X19	Y19	Z19	X20	Y20	Z20	X21	Y21	Z21	X22	Y22	Z22	X23	Y23	Z23	X24	Y24	Z24	X25	Y25	Z25	X26	Y26	Z26	X27	Y27	Z27	X28	Y28	Z28	X29	Y29	Z29	X30	Y30	Z30	X31	Y31	Z31	X32	Y32	Z32	X33	Y33	Z33	X34	Y34	Z34	X35	Y35	Z35	X36	Y36	Z36	X37	Y37	Z37	X38	Y38	Z38	X39	Y39	Z39	X40	Y40	Z40	X41	Y41	Z41	X42	Y42	Z42	X43	Y43	Z43	X44	Y44	Z44	X45	Y45	Z45	X46	Y46	Z46	X47	Y47	Z47	X48	Y48	Z48	X49	Y49	Z49	X50	Y50	Z50	X51	Y51	Z51	X52	Y52	Z52	X53	Y53	Z53	X54	Y54	Z54	X55	Y55	Z55	

1	0	208.7573699951172	1331.22705078125	-2216.96435546875	170.7640991210938	1361.649291992188	-196.9120330810546	473.2618408203125	1541.674560546875	-1174.83056640625	421.8060607910156	1566.883666992188	-1112.4765625	431.7347717285156	1565.833862304688	-1248.51123046875	239.8508758544922	1415.910278320312	-1185.192016601562	134.7018280029297	1275.826782226562	-1196.4501953125	116.0568923950195	1243.415893554688	-1215.695434570312	105.6279296875	1236.609008789062	-1166.776733398438	99.03890991210938	1180.961059570312	-1201.79248046875	92.593017578125	1109.657104492188	-1203.323608398438	67.18338775634766	1074.758911132812	-1220.367919921875	65.25341033935547	1070.062377929688	-1170.249389648438	53.04365921020508	1012.674560546875	-1202.306396484375	31.56319999694824	938.5665893554689	-1229.958374023438	29.96029663085938	936.0742797851564	-1178.495971679688	23.91279983520508	876.6892089843751	-1207.033325195312	114.7765808105469	678.8650512695314	-1423.938598632812	72.47318267822266	616.5595092773439	-1398.296997070312	115.639030456543	617.2947998046876	-1424.253540039062	100.0044860839844	332.5252990722657	-1508.8857421875	59.98879241943359	263.4079589843751	-1505.892333984375	107.9369125366211	272.0159301757814	-1521.243896484375	75.37274169921875	68.07863616943368	-1489.310546875	283.3260803222656	50.07254409790048	-1546.74365234375	216.0124816894531	24.15103149414072	-1634.521606445312	73.35414886474609	685.8499145507814	-990.7947387695312	119.5202026367188	638.8779296875001	-945.6629028320312	83.02848052978516	626.2617797851564	-977.3576049804688	50.73041152954102	347.2111511230469	-896.994873046875	85.69252014160156	285.2857971191407	-863.5241088867188	44.94722366333008	285.1989440917969	-892.3204345703125	54.1885986328125	62.30941772460943	-915.8104858398438	251.0081329345703	47.96982574462896	-834.3933715820312	168.6292724609375	35.15699386596685	-754.86181640625	371.5459289550781	1273.275268554688	-1184.697021484375	359.3472900390625	1130.226318359375	-1181.2451171875	273.8565979003906	1375.84765625	-1347.492797851562	157.0092163085938	1271.942504882812	-1437.404418945312	107.7645034790039	1229.914794921875	-1425.962646484375	135.9790649414062	1217.68603515625	-1466.65087890625	101.9542846679688	1153.873413085938	-1536.53515625	170.7772674560547	1145.376220703125	-1575.417358398438	146.4440765380859	1187.514038085938	-1562.843139648438	202.8306121826172	1265.405151367188	-1602.544921875	224.4590759277344	1287.898803710938	-1529.406860351562	273.9362182617188	1376.5625	-1030.67041015625	158.8384399414062	1274.07373046875	-952.6319580078124	128.018310546875	1223.381225585938	-922.7794799804686	109.6960754394531	1234.178588867188	-970.6631469726561	106.5695953369141	1151.879272460938	-836.4060058593749	114.9880828857422	1230.412963867188	-822.7550048828124	144.6365203857422	1192.151611328125	-807.6181640624999	183.3104553222656	1273.307495117188	-780.6848144531249	219.1427459716797	1303.242309570312	-846.5286254882811	
2	0.005	208.6817474365234	1331.27001953125	-2216.933837890625	170.7526397705078	1361.7021484375	-196.878692626953	473.1499633789062	1541.78515625	-1174.769775390625	421.6771850585938	1566.934814453125	-1112.413208007812	431.5744323730469	1565.927001953125	-1248.400390625	239.8347778320312	1415.923583984375	-1185.174682617188	134.7223510742188	1275.825439453125	-1196.4541015625	116.0687484741211	1243.413330078125	-1215.70068359375	105.651741027832	1236.628051757812	-1166.815551757812	99.06385040283203	1180.957153320312	-1201.793701171875	92.65750122070312	1109.658447265625	-1203.326416015625	67.31619262695312	1074.751831054688	-1220.42724609375	65.30215454101562	1070.075317382812	-1170.309448242188	53.10063171386719	1012.702270507813	-1202.341918945312	31.62352180480957	938.6541137695314	-1230.007080078125	29.99405670166016	936.1599731445314	-1178.539306640625	23.94724273681641	876.7761230468751	-1207.095336914062	114.8035049438477	678.8687133789064	-1423.979370117188	72.49440002441406	616.5911254882814	-1398.320556640625	115.6503448486328	617.3127441406251	-1424.273559570312	99.98888397216797	332.5296630859376	-1508.896118164062	59.98270797729492	263.4104309082032	-1505.897583007812	107.9254913330078	272.0198669433595	-1521.25146484375	75.36655426025391	68.07535552978524	-1489.316528320312	283.3249206542969	50.08231735229501	-1546.741088867188	216.0112609863281	24.15365791320811	-1634.517944335938	73.29480743408203	685.8475952148439	-990.8551635742188	119.4305877685547	638.8729248046876	-945.6982421875	82.96707916259766	626.2705078125001	-977.4267578125	50.66862487792969	347.2000122070313	-897.0347290039062	85.63477325439453	285.2825012207032	-863.5560302734375	44.90037155151367	285.1877746582032	-892.3576049804688	54.18403625488281	62.30704116821295	-915.8113403320312	251.0061187744141	47.96966171264653	-834.3858032226562	168.6272583007812	35.15625000000005	-754.8593139648438	371.5491638183594	1273.302490234375	-1184.684692382812	359.3729248046875	1130.25634765625	-1181.226806640625	273.834716796875	1375.862060546875	-1347.467651367188	157.0198669433594	1271.9208984375	-1437.366333007812	107.7858505249023	1229.877075195312	-1425.932495117188	135.9858093261719	1217.678466796875	-1466.635864257812	101.9892730712891	1153.8447265625	-1536.511108398438	170.8131408691406	1145.375610351562	-1575.401245117188	146.4492950439453	1187.512329101562	-1562.82568359375	202.8231658935547	1265.414184570312	-1602.521484375	224.4497680664062	1287.908447265625	-1529.380615234375	273.9349975585938	1376.576782226562	-1030.6513671875	158.87646484375	1274.059448242188	-952.6168823242186	128.0697479248047	1223.352783203125	-922.7604980468749	109.7383422851562	1234.136840820312	-970.6368408203124	106.6488189697266	1151.852905273438	-836.3629150390624	115.0167770385742	1230.392333984375	-822.7206420898436	144.6950836181641	1192.1435546875	-807.5814819335936	183.3340911865234	1273.319702148438	-780.6561889648436	219.1403656005859	1303.264282226562	-846.5017089843749	
3	0.01	208.5952453613281	1331.31982421875	-2216.899169921875	170.7406463623047	1361.766479492188	-196.8412017822265	473.022705078125	1541.909790039062	-1174.702880859375	421.53125	1566.993408203125	-1112.343872070312	431.3955688476562	1566.033813476562	-1248.281005859375	239.8118286132812	1415.93994140625	-1185.15576171875	134.7420501708984	1275.823486328125	-1196.458129882812	116.0789794921875	1243.409423828125	-1215.705810546875	105.6730117797852	1236.6455078125	-1166.852661132812	99.08896636962891	1180.951904296875	-1201.794311523438	92.72737121582031	1109.658813476562	-1203.328002929688	67.45646667480469	1074.746337890625	-1220.488159179688	65.35597229003906	1070.08837890625	-1170.369873046875	53.16352462768555	1012.731262207031	-1202.3798828125	31.69025802612305	938.7489624023439	-1230.06005859375	30.0322151184082	936.2528076171876	-1178.585815429688	23.9868221282959	876.8699340820314	-1207.16259765625	114.8343276977539	678.8790283203126	-1424.021362304688	72.52188873291016	616.6255493164064	-1398.345092773438	115.6655502319336	617.3323364257814	-1424.295288085938	99.97408294677734	332.5346984863282	-1508.9072265625	59.97953796386719	263.4132690429689	-1505.90234375	107.9153366088867	272.0244750976564	-1521.259033203125	75.35987091064453	68.07162475585946	-1489.32275390625	283.32373046875	50.09269332885751	-1546.737670898438	216.0098724365234	24.15699005126963	-1634.513305664062	73.23382568359375	685.8458251953126	-990.9198608398438	119.3373641967773	638.8676757812501	-945.736328125	82.90430450439453	626.2813110351564	-977.5015869140625	50.60403823852539	347.1887207031251	-897.0768432617188	85.57509613037109	285.2788696289063	-863.5907592773438	44.8516960144043	285.1766662597657	-892.3965454101562	54.17914199829102	62.3046493530274	-915.8126220703125	251.0040740966797	47.9691772460938	-834.3768310546875	168.6252593994141	35.1555786132813	-754.8566284179688	371.5495910644531	1273.33642578125	-1184.670776367188	359.3998413085938	1130.292358398438	-1181.206420898438	273.8072814941406	1375.880615234375	-1347.439697265625	157.0307312011719	1271.897216796875	-1437.324340820312	107.8096237182617	1229.833618164062	-1425.900512695312	135.9956970214844	1217.667724609375	-1466.620239257812	102.0325241088867	1153.811279296875	-1536.48681640625	170.8580780029297	1145.376586914062	-1575.38525390625	146.4574737548828	1187.51171875	-1562.808471679688	202.8150177001953	1265.427612304688	-1602.49560546875	224.4384613037109	1287.922241210938	-1529.351196289062	273.9305725097656	1376.595092773438	-1030.6298828125	158.9183349609375	1274.044067382812	-952.5983276367186	128.128173828125	1223.3212890625	-922.7385864257811	109.7855072021484	1234.089111328125	-970.6052246093749	106.7409362792969	1151.824951171875	-836.3101806640624	115.0521697998047	1230.371337890625	-822.6787109374999	144.7633819580078	1192.137451171875	-807.5369873046874	183.3607788085938	1273.337890625	-780.6224975585936	219.1374359130859	1303.29248046875	-846.4705200195311	
4	0.015	208.4986724853516	1331.376098632813	-2216.861083984375	170.7286224365234	1361.842895507812	-196.8001098632812	472.8813781738281	1542.046630859375	-1174.630981445312	421.3701477050781	1567.058715820312	-1112.269897460938	431.201416015625	1566.1533203125	-1248.156616210938	239.7807769775391	1415.959350585938	-1185.135375976562	134.7595977783203	1275.820678710938	-1196.462036132812	116.0865173339844	1243.403930664062	-1215.710571289062	105.6901779174805	1236.660278320312	-1166.88623046875	99.113037109375	1180.944946289062	-1201.793823242188	92.80080413818359	1109.658081054688	-1203.327880859375	67.59944152832031	1074.742797851562	-1220.5478515625	65.41383361816406	1070.101196289062	-1170.427856445312	53.23099517822266	1012.760559082031	-1202.419311523438	31.76196098327637	938.8485107421876	-1230.115844726562	30.07421875	936.3500976562501	-1178.634155273438	24.03117179870605	876.9678344726564	-1207.2333984375	114.8689956665039	678.8967285156251	-1424.06298828125	72.55630493164062	616.6619262695314	-1398.369506835938	115.6852951049805	617.3532104492189	-1424.318115234375	99.96119689941406	332.5404052734376	-1508.9189453125	59.98043823242188	263.416473388672	-1505.906372070312	107.9074783325195	272.0297241210939	-1521.266235351562	75.3529052734375	68.06751251220712	-1489.328857421875	283.3224792480469	50.10324096679697	-1546.7333984375	216.00830078125	24.16109085083018	-1634.507690429688	73.17401885986328	685.8447875976564	-990.9866333007812	119.2443466186523	638.8623657226564	-945.7760620117188	82.84309387207031	626.2943115234376	-977.5799560546875	50.53916168212891	347.1777954101563	-897.1196899414062	85.51595306396484	285.2750244140626	-863.62744140625	44.80316543579102	285.1661682128907	-892.4359130859375	54.17406845092773	62.30237960815435	-915.8142700195312	251.0020904541016	47.96829223632817	-834.3665161132812	168.6233367919922	35.15504074096685	-754.8538818359375	371.5462341308594	1273.377319335938	-1184.65576171875	359.4269409179688	1130.334350585938	-1181.184326171875	273.7738037109375	1375.903930664062	-1347.409057617188	157.0412445068359	1271.871948242188	-1437.279296875	107.8353042602539	1229.78515625	-1425.86767578125	136.0092315673828	1217.652954101562	-1466.604370117188	102.0843734741211	1153.7734375	-1536.463134765625	170.9125823974609	1145.379638671875	-1575.370361328125	146.4690551757812	1187.512573242188	-1562.79248046875	202.8062744140625	1265.445922851562	-1602.467895507812	224.4250030517578	1287.94091796875	-1529.31884765625	273.9219970703125	1376.617553710938	-1030.606079101562	158.9629669189453	1274.027954101562	-952.5759887695311	128.1927185058594	1223.287231445312	-922.7137451171874	109.8366775512695	1234.036010742188	-970.5682983398436	106.8453826904297	1151.796264648438	-836.2473754882811	115.0947341918945	1230.350830078125	-822.6289062499999	144.841064453125	1192.134521484375	-807.4843139648436	183.3901824951172	1273.362915039062	-780.5838012695311	219.1339111328125	1303.327392578125	-846.4351806640624	
